<svg id="_1-main" data-name="1-main" xmlns="http://www.w3.org/2000/svg" width="123" height="14" viewBox="0 0 123 14">
  <metadata><?xpacket begin="﻿" id="W5M0MpCehiHzreSzNTczkc9d"?>
<x:xmpmeta xmlns:x="adobe:ns:meta/" x:xmptk="Adobe XMP Core 5.6-c142 79.160924, 2017/07/13-01:06:39        ">
   <rdf:RDF xmlns:rdf="http://www.w3.org/1999/02/22-rdf-syntax-ns#">
      <rdf:Description rdf:about=""/>
   </rdf:RDF>
</x:xmpmeta>
                                                                                                    
                                                                                                    
                                                                                                    
                                                                                                    
                                                                                                    
                                                                                                    
                                                                                                    
                                                                                                    
                                                                                                    
                                                                                                    
                                                                                                    
                                                                                                    
                                                                                                    
                                                                                                    
                                                                                                    
                                                                                                    
                                                                                                    
                                                                                                    
                                                                                                    
                                                                                                    
                           
<?xpacket end="w"?></metadata>
<defs>
    <style>
      .cls-1 {
        fill: #141414;
        fill-rule: evenodd;
      }
    </style>
  </defs>
  <g id="phone">
    <path id="_7_982_625_82_52" data-name="+7 982 625 82 52" class="cls-1" d="M4.119,2.949H2.625V6.063H-0.489V7.557H2.625v3.132H4.119V7.557H7.251V6.063H4.119V2.949ZM12.606,2.1L8.052,13.119H9.8l4.59-11.106V0.519H6.522V2.1h6.084Zm14.148-.63A4.288,4.288,0,0,0,23.64.285a4.272,4.272,0,0,0-3.132,1.188A4.012,4.012,0,0,0,19.3,4.515a4.108,4.108,0,0,0,1.206,3.06,4.347,4.347,0,0,0,3.132,1.17q0.072,0,.612-0.036l-2.988,4.41h1.89l4.068-6.066H27.2a4.193,4.193,0,0,0,.774-2.538,4.019,4.019,0,0,0-1.224-3.042h0Zm-1.17,1.134a2.545,2.545,0,0,1,.738,1.908,2.559,2.559,0,0,1-.747,1.917,2.933,2.933,0,0,1-3.87,0,2.558,2.558,0,0,1-.747-1.917A2.528,2.528,0,0,1,21.7,2.607,2.972,2.972,0,0,1,25.584,2.607ZM36.852,3.849A3.165,3.165,0,0,0,35.7,1.221,4.142,4.142,0,0,0,32.946.285a4.23,4.23,0,0,0-2.754.936,3.186,3.186,0,0,0-1.134,2.628A3.075,3.075,0,0,0,30.606,6.6a3.258,3.258,0,0,0-1.962,3.06,3.326,3.326,0,0,0,1.206,2.718,4.778,4.778,0,0,0,3.1.972,4.853,4.853,0,0,0,3.114-.972,3.327,3.327,0,0,0,1.206-2.718A3.258,3.258,0,0,0,35.3,6.6a3.076,3.076,0,0,0,1.548-2.754h0Zm-2.286-1.44a1.835,1.835,0,0,1,.612,1.476,1.842,1.842,0,0,1-.63,1.476,2.646,2.646,0,0,1-3.2,0,1.841,1.841,0,0,1-.63-1.476,1.822,1.822,0,0,1,.621-1.476A2.761,2.761,0,0,1,34.566,2.409ZM31.02,11.175a1.956,1.956,0,0,1-.72-1.62,1.937,1.937,0,0,1,.72-1.6,3,3,0,0,1,1.926-.576,3.026,3.026,0,0,1,1.944.576,1.938,1.938,0,0,1,.72,1.6,1.957,1.957,0,0,1-.72,1.62,3.024,3.024,0,0,1-1.944.576A2.993,2.993,0,0,1,31.02,11.175ZM46.149,11.5H40.443l3.222-3.2q2.25-2.25,2.25-4.158a3.611,3.611,0,0,0-1.17-2.808A3.962,3.962,0,0,0,41.991.285a4.427,4.427,0,0,0-2.358.639,4.242,4.242,0,0,0-1.62,1.845l1.4,0.828a2.7,2.7,0,0,1,2.592-1.692,2.232,2.232,0,0,1,1.593.6,2.157,2.157,0,0,1,.639,1.647q0,1.278-1.782,3.06l-4.446,4.536v1.368h8.136V11.5Zm8.73-6.588,2.97-4.392H55.94L51.89,6.585a4.181,4.181,0,0,0-.756,2.52,4.108,4.108,0,0,0,1.206,3.06,4.7,4.7,0,0,0,6.246,0,4.077,4.077,0,0,0,1.224-3.06,4.019,4.019,0,0,0-1.224-3.042,4.288,4.288,0,0,0-3.114-1.188q-0.054,0-.594.036h0ZM57.407,7.2a2.529,2.529,0,0,1,.747,1.908,2.559,2.559,0,0,1-.747,1.917,2.933,2.933,0,0,1-3.87,0,2.557,2.557,0,0,1-.747-1.917A2.544,2.544,0,0,1,53.528,7.2,2.972,2.972,0,0,1,57.407,7.2Zm11.1,4.3H62.8l3.222-3.2q2.25-2.25,2.25-4.158A3.611,3.611,0,0,0,67.1,1.329,3.962,3.962,0,0,0,64.344.285a4.427,4.427,0,0,0-2.358.639,4.242,4.242,0,0,0-1.62,1.845L61.77,3.6a2.7,2.7,0,0,1,2.592-1.692,2.232,2.232,0,0,1,1.593.6,2.157,2.157,0,0,1,.639,1.647q0,1.278-1.782,3.06l-4.446,4.536v1.368H68.5V11.5Zm3.42-9.414H77.3V0.519H70.41L69.942,7.053h3.564a2.8,2.8,0,0,1,1.9.63,2.144,2.144,0,0,1,.729,1.71,2.116,2.116,0,0,1-.729,1.7,2.883,2.883,0,0,1-1.935.621,3.08,3.08,0,0,1-1.764-.486,2.383,2.383,0,0,1-.972-1.386l-1.422.81a3.674,3.674,0,0,0,1.557,1.989,4.762,4.762,0,0,0,2.6.711,4.633,4.633,0,0,0,3.06-1.062,3.558,3.558,0,0,0,1.26-2.9,3.614,3.614,0,0,0-1.242-2.9,4.427,4.427,0,0,0-3.006-1.062H71.706ZM91.128,3.849a3.165,3.165,0,0,0-1.152-2.628A4.142,4.142,0,0,0,87.222.285a4.23,4.23,0,0,0-2.754.936,3.186,3.186,0,0,0-1.134,2.628A3.075,3.075,0,0,0,84.882,6.6a3.258,3.258,0,0,0-1.962,3.06,3.326,3.326,0,0,0,1.206,2.718,4.778,4.778,0,0,0,3.1.972,4.853,4.853,0,0,0,3.114-.972,3.327,3.327,0,0,0,1.206-2.718A3.258,3.258,0,0,0,89.58,6.6a3.076,3.076,0,0,0,1.548-2.754h0Zm-2.286-1.44a1.835,1.835,0,0,1,.612,1.476,1.842,1.842,0,0,1-.63,1.476,2.646,2.646,0,0,1-3.2,0,1.841,1.841,0,0,1-.63-1.476,1.822,1.822,0,0,1,.621-1.476A2.761,2.761,0,0,1,88.842,2.409ZM85.3,11.175a1.956,1.956,0,0,1-.72-1.62,1.937,1.937,0,0,1,.72-1.6,3,3,0,0,1,1.926-.576,3.026,3.026,0,0,1,1.944.576,1.938,1.938,0,0,1,.72,1.6,1.957,1.957,0,0,1-.72,1.62,3.024,3.024,0,0,1-1.944.576A2.993,2.993,0,0,1,85.3,11.175ZM100.425,11.5H94.719l3.222-3.2q2.25-2.25,2.25-4.158a3.611,3.611,0,0,0-1.17-2.808A3.961,3.961,0,0,0,96.267.285a4.427,4.427,0,0,0-2.358.639,4.242,4.242,0,0,0-1.62,1.845l1.4,0.828a2.7,2.7,0,0,1,2.592-1.692,2.231,2.231,0,0,1,1.593.6,2.157,2.157,0,0,1,.639,1.647q0,1.278-1.782,3.06l-4.446,4.536v1.368h8.136V11.5Zm7.722-9.414h5.382V0.519h-6.894l-0.468,6.534h3.564a2.8,2.8,0,0,1,1.9.63,2.144,2.144,0,0,1,.729,1.71,2.116,2.116,0,0,1-.729,1.7,2.883,2.883,0,0,1-1.935.621,3.08,3.08,0,0,1-1.764-.486,2.384,2.384,0,0,1-.972-1.386l-1.422.81a3.674,3.674,0,0,0,1.557,1.989,4.762,4.762,0,0,0,2.6.711,4.632,4.632,0,0,0,3.06-1.062,3.557,3.557,0,0,0,1.26-2.9,3.614,3.614,0,0,0-1.242-2.9,4.426,4.426,0,0,0-3.006-1.062h-1.836Zm14.7,9.414h-5.706l3.222-3.2q2.25-2.25,2.25-4.158a3.611,3.611,0,0,0-1.17-2.808A3.961,3.961,0,0,0,118.686.285a4.428,4.428,0,0,0-2.358.639,4.243,4.243,0,0,0-1.62,1.845l1.4,0.828A2.7,2.7,0,0,1,118.7,1.905a2.231,2.231,0,0,1,1.593.6,2.156,2.156,0,0,1,.639,1.647q0,1.278-1.782,3.06l-4.446,4.536v1.368h8.136V11.5Z"/>
  </g>
</svg>
