<svg viewBox="0 0 512 512" xmlns="http://www.w3.org/2000/svg"><linearGradient id="a" gradientTransform="matrix(1 0 0 -1 0 -5762)" gradientUnits="userSpaceOnUse" x1="0" x2="512" y1="-6018" y2="-6018"><stop offset="0" stop-color="#31d8ff"/><stop offset="1" stop-color="#ff80ff"/></linearGradient><path d="M512 256c0 141.387-114.613 256-256 256S0 397.387 0 256 114.613 0 256 0s256 114.613 256 256zm0 0" fill="url(#a)"/><path d="M429.57 143.02a14.942 14.942 0 00-3.691-3.075 36.405 36.405 0 00-21.488-6.996H107.609c-8.02 0-15.441 2.602-21.48 6.992a14.858 14.858 0 00-3.703 3.082C75.398 149.7 71 159.121 71 169.56v172.88c0 20.188 16.422 36.61 36.61 36.61h296.78c20.188 0 36.61-16.422 36.61-36.61V169.56c0-10.438-4.398-19.864-11.43-26.54zm-55.132 19.93L256 238.226l-118.438-75.278zm29.953 186.1H107.609a6.617 6.617 0 01-6.609-6.609V175.258l146.953 93.402a15.006 15.006 0 0016.094 0L411 175.258V342.44a6.617 6.617 0 01-6.61 6.61zm0 0" fill="#fff"/></svg>