<svg data-name="1-main" xmlns="http://www.w3.org/2000/svg" width="123" height="14"><path data-name="+7 982 625 82 52" d="M4.119 2.949H2.625v3.114H-.489v1.494h3.114v3.132h1.494V7.557h3.132V6.063H4.119V2.949zm8.487-.849L8.052 13.119H9.8l4.59-11.106V.519H6.522V2.1h6.084zm14.148-.63A4.288 4.288 0 0023.64.285a4.272 4.272 0 00-3.132 1.188A4.012 4.012 0 0019.3 4.515a4.108 4.108 0 001.206 3.06 4.347 4.347 0 003.132 1.17q.072 0 .612-.036l-2.988 4.41h1.89l4.068-6.066h-.02a4.193 4.193 0 00.774-2.538 4.019 4.019 0 00-1.224-3.042zm-1.17 1.134a2.545 2.545 0 01.738 1.908 2.559 2.559 0 01-.747 1.917 2.933 2.933 0 01-3.87 0 2.558 2.558 0 01-.747-1.917 2.528 2.528 0 01.742-1.905 2.972 2.972 0 013.884 0zm11.268 1.245A3.165 3.165 0 0035.7 1.221a4.142 4.142 0 00-2.754-.936 4.23 4.23 0 00-2.754.936 3.186 3.186 0 00-1.134 2.628A3.075 3.075 0 0030.606 6.6a3.258 3.258 0 00-1.962 3.06 3.326 3.326 0 001.206 2.718 4.778 4.778 0 003.1.972 4.853 4.853 0 003.114-.972A3.327 3.327 0 0037.27 9.66 3.258 3.258 0 0035.3 6.6a3.076 3.076 0 001.548-2.754zm-2.286-1.44a1.835 1.835 0 01.612 1.476 1.842 1.842 0 01-.63 1.476 2.646 2.646 0 01-3.2 0 1.841 1.841 0 01-.63-1.476 1.822 1.822 0 01.621-1.476 2.761 2.761 0 013.227 0zm-3.546 8.766a1.956 1.956 0 01-.72-1.62 1.937 1.937 0 01.72-1.6 3 3 0 011.926-.576 3.026 3.026 0 011.944.576 1.938 1.938 0 01.72 1.6 1.957 1.957 0 01-.72 1.62 3.024 3.024 0 01-1.944.576 2.993 2.993 0 01-1.926-.576zm15.129.325h-5.706l3.222-3.2q2.25-2.25 2.25-4.158a3.611 3.611 0 00-1.17-2.808A3.962 3.962 0 0041.991.285a4.427 4.427 0 00-2.358.639 4.242 4.242 0 00-1.62 1.845l1.4.828a2.7 2.7 0 012.592-1.692 2.232 2.232 0 011.593.6 2.157 2.157 0 01.639 1.647q0 1.278-1.782 3.06l-4.446 4.536v1.368h8.136V11.5zm8.73-6.588L57.849.52H55.94l-4.05 6.065a4.181 4.181 0 00-.756 2.52 4.108 4.108 0 001.206 3.06 4.7 4.7 0 006.246 0 4.077 4.077 0 001.224-3.06 4.019 4.019 0 00-1.224-3.042 4.288 4.288 0 00-3.114-1.188q-.054 0-.594.036zM57.407 7.2a2.529 2.529 0 01.747 1.908 2.559 2.559 0 01-.747 1.917 2.933 2.933 0 01-3.87 0 2.557 2.557 0 01-.747-1.917 2.544 2.544 0 01.738-1.908 2.972 2.972 0 013.879 0zm11.1 4.3H62.8l3.222-3.2q2.25-2.25 2.25-4.158A3.611 3.611 0 0067.1 1.329 3.962 3.962 0 0064.344.285a4.427 4.427 0 00-2.358.639 4.242 4.242 0 00-1.62 1.845l1.404.831a2.7 2.7 0 012.592-1.692 2.232 2.232 0 011.593.6 2.157 2.157 0 01.639 1.647q0 1.278-1.782 3.06l-4.446 4.536v1.368H68.5V11.5zm3.42-9.414H77.3V.519h-6.89l-.468 6.534h3.564a2.8 2.8 0 011.9.63 2.144 2.144 0 01.729 1.71 2.116 2.116 0 01-.729 1.7 2.883 2.883 0 01-1.935.621 3.08 3.08 0 01-1.764-.486 2.383 2.383 0 01-.972-1.386l-1.422.81a3.674 3.674 0 001.557 1.989 4.762 4.762 0 002.6.711 4.633 4.633 0 003.06-1.062 3.558 3.558 0 001.26-2.9 3.614 3.614 0 00-1.242-2.9 4.427 4.427 0 00-3.006-1.062h-1.836zm19.201 1.763a3.165 3.165 0 00-1.152-2.628 4.142 4.142 0 00-2.754-.936 4.23 4.23 0 00-2.754.936 3.186 3.186 0 00-1.134 2.628A3.075 3.075 0 0084.882 6.6a3.258 3.258 0 00-1.962 3.06 3.326 3.326 0 001.206 2.718 4.778 4.778 0 003.1.972 4.853 4.853 0 003.114-.972 3.327 3.327 0 001.206-2.718A3.258 3.258 0 0089.58 6.6a3.076 3.076 0 001.548-2.754zm-2.286-1.44a1.835 1.835 0 01.612 1.476 1.842 1.842 0 01-.63 1.476 2.646 2.646 0 01-3.2 0 1.841 1.841 0 01-.63-1.476 1.822 1.822 0 01.621-1.476 2.761 2.761 0 013.227 0zM85.3 11.175a1.956 1.956 0 01-.72-1.62 1.937 1.937 0 01.72-1.6 3 3 0 011.926-.576 3.026 3.026 0 011.944.576 1.938 1.938 0 01.72 1.6 1.957 1.957 0 01-.72 1.62 3.024 3.024 0 01-1.944.576 2.993 2.993 0 01-1.926-.576zm15.125.325h-5.706l3.222-3.2q2.25-2.25 2.25-4.158a3.611 3.611 0 00-1.17-2.808A3.961 3.961 0 0096.267.285a4.427 4.427 0 00-2.358.639 4.242 4.242 0 00-1.62 1.845l1.4.828a2.7 2.7 0 012.592-1.692 2.231 2.231 0 011.593.6 2.157 2.157 0 01.639 1.647q0 1.278-1.782 3.06l-4.446 4.536v1.368h8.136V11.5zm7.722-9.414h5.382V.519h-6.894l-.468 6.534h3.564a2.8 2.8 0 011.9.63 2.144 2.144 0 01.729 1.71 2.116 2.116 0 01-.729 1.7 2.883 2.883 0 01-1.935.621 3.08 3.08 0 01-1.764-.486 2.384 2.384 0 01-.972-1.386l-1.422.81a3.674 3.674 0 001.557 1.989 4.762 4.762 0 002.6.711 4.632 4.632 0 003.06-1.062 3.557 3.557 0 001.26-2.9 3.614 3.614 0 00-1.242-2.9 4.426 4.426 0 00-3.006-1.062h-1.836zm14.7 9.414h-5.706l3.222-3.2q2.25-2.25 2.25-4.158a3.611 3.611 0 00-1.17-2.808 3.961 3.961 0 00-2.757-1.049 4.428 4.428 0 00-2.358.639 4.243 4.243 0 00-1.62 1.845l1.4.828a2.7 2.7 0 012.592-1.692 2.231 2.231 0 011.593.6 2.156 2.156 0 01.639 1.647q0 1.278-1.782 3.06l-4.446 4.536v1.368h8.136V11.5z" fill="#141414" fill-rule="evenodd"/></svg>